<?xml version="1.0" encoding="UTF-8"?>
<svg xmlns="http://www.w3.org/2000/svg" xmlns:xlink="http://www.w3.org/1999/xlink" width="64pt" height="64pt" viewBox="0 0 64 64" version="1.1">
<g id="surface4350534">
<path style=" stroke:none;fill-rule:nonzero;fill:rgb(20.392157%,59.607843%,85.882353%);fill-opacity:1;" d="M 0.988281 32 C 0.988281 14.875 14.875 0.988281 32 0.988281 C 49.125 0.988281 63.011719 14.875 63.011719 32 C 63.011719 49.125 49.125 63.011719 32 63.011719 C 14.875 63.011719 0.988281 49.125 0.988281 32 Z M 0.988281 32 "/>
<path style=" stroke:none;fill-rule:nonzero;fill:rgb(100%,100%,100%);fill-opacity:1;" d="M 48.9375 26.8125 L 37.125 26.8125 L 37.125 15.074219 C 37.125 14.574219 36.726562 14.175781 36.226562 14.175781 L 27.710938 14.175781 C 27.210938 14.175781 26.8125 14.574219 26.8125 15.074219 L 26.8125 26.8125 L 15.074219 26.8125 C 14.574219 26.8125 14.175781 27.210938 14.175781 27.710938 L 14.175781 36.363281 C 14.175781 36.863281 14.574219 37.261719 15.074219 37.261719 L 26.8125 37.261719 L 26.8125 48.9375 C 26.8125 49.4375 27.210938 49.835938 27.710938 49.835938 L 36.226562 49.835938 C 36.726562 49.835938 37.125 49.4375 37.125 48.9375 L 37.125 37.261719 L 48.9375 37.261719 C 49.4375 37.261719 49.835938 36.863281 49.835938 36.363281 L 49.835938 27.710938 C 49.835938 27.210938 49.425781 26.8125 48.9375 26.8125 Z M 48.9375 26.8125 "/>
</g>
</svg>
